<!-- icon666.com - MILLIONS vector ICONS FREE --><svg id="Layer_1" viewBox="0 0 200 200" xmlns="http://www.w3.org/2000/svg" xmlns:xlink="http://www.w3.org/1999/xlink" data-name="Layer 1"><linearGradient id="New_Gradient_Swatch" gradientUnits="userSpaceOnUse" x1="29.29" x2="170.71" y1="29.29" y2="170.71"><stop offset="0" stop-color="#00cefd"></stop><stop offset="1" stop-color="#0052e1"></stop></linearGradient><path d="m100 0a100 100 0 1 0 100 100 100 100 0 0 0 -100-100zm-29.11 92.11a4 4 0 0 1 5.66 0l19.45 19.45v-56.56a4 4 0 0 1 8 0v56.56l19.45-19.45a4 4 0 1 1 5.65 5.66l-26.27 26.28a4 4 0 0 1 -5.66 0l-26.28-26.28a4 4 0 0 1 0-5.66zm77.87 41.67a15.24 15.24 0 0 1 -15.22 15.22h-67.08a15.24 15.24 0 0 1 -15.22-15.22v-8.28a4 4 0 0 1 8 0v8.28a7.23 7.23 0 0 0 7.22 7.22h67.08a7.23 7.23 0 0 0 7.22-7.22v-8.28a4 4 0 0 1 8 0z" fill="url(#New_Gradient_Swatch)"></path></svg>